<?xml version="1.0" encoding="utf-8"?>
<!-- Generator: Adobe Illustrator 25.4.1, SVG Export Plug-In . SVG Version: 6.00 Build 0)  -->
<svg version="1.1" id="Layer_2" xmlns="http://www.w3.org/2000/svg" xmlns:xlink="http://www.w3.org/1999/xlink" x="0px" y="0px"
	 viewBox="0 0 186.65 224.53" style="enable-background:new 0 0 186.65 224.53;" xml:space="preserve">
<style type="text/css">
	.st0{fill:url(#Path_1165_00000147907992692297561900000002300107324983095216_);}
	.st1{fill:#FFC0C2;}
	.st2{fill:url(#Path_1167_00000032634561604463531510000011843466241831634860_);}
	.st3{fill:#823E30;}
	.st4{fill:url(#Path_1173_00000098914661258863115110000011143259091709130654_);}
	.st5{fill:#674B3C;}
	.st6{fill:#F9BD95;}
	.st7{opacity:0.1;fill:#293657;}
	.st8{fill:#5A5B5D;}
	.st9{fill:url(#SVGID_1_);}
	.st10{fill:url(#SVGID_00000014606350642091183510000014320288579511660202_);}
	.st11{fill:#151C28;}
	.st12{fill:url(#SVGID_00000090253941910807346070000007349450398453577365_);}
	.st13{fill:url(#SVGID_00000178915318705132780000000004681412938077271991_);}
	.st14{fill:url(#Path_1237_00000158725611563363205910000003369327442253708686_);}
	.st15{fill:url(#Path_1243_00000072255209335928990450000014024696113003747752_);}
	.st16{fill:url(#Path_1245_00000088119086899829158500000014484127615704445094_);}
	.st17{fill:url(#Path_1246_00000163752841012080499370000010552937897474912687_);}
	.st18{fill:url(#SVGID_00000125583089408603461800000014403964199594376112_);}
	.st19{fill:url(#SVGID_00000009568999247756274110000018100987469406834839_);}
</style>
<g>
	<g>
		<g id="Group_1779_2_" transform="translate(4836.979 2010.897)">
			
				<linearGradient id="Path_1165_00000043418692736879379130000017023171930942482062_" gradientUnits="userSpaceOnUse" x1="-4712.2852" y1="-1912.6294" x2="-4664.9951" y2="-1912.6294" gradientTransform="matrix(0.996 0.0889 -0.0889 0.996 -242.9809 411.0892)">
				<stop  offset="0" style="stop-color:#DD1545"/>
				<stop  offset="1" style="stop-color:#FF6B47"/>
			</linearGradient>
			<path id="Path_1165_2_" style="fill:url(#Path_1165_00000043418692736879379130000017023171930942482062_);" d="
				M-4760.82-1927.68c0.1-0.03,0.29-0.06,0.58-0.15c1.65-0.6,3.02-1.8,3.82-3.36c7.08,8.15,12.12,13.69,15.51,17.33
				c0.54,0.58,1.2,1.29,2.19,2.37c5.03,5.46,8.89,9.97,11.4,12.97c0.23,0.06,5.52,1.46,6.29,5.37c0.13,0.7,0.12,1.41-0.04,2.1
				l-3.85,1.01c-3.02-1.93-6.05-3.9-9.09-5.92c-11.27-7.48-21.95-15.04-32.03-22.69
				C-4764.55-1925.18-4762.5-1927.17-4760.82-1927.68z"/>
		</g>
		<g>
			<path id="Path_1166_2_" class="st1" d="M60.37,175.56l7.93-7.42l-4.01-4.16l-6.42,9.69c-0.11,0.75,0.26,1.5,0.92,1.87
				C59.29,175.78,59.87,175.78,60.37,175.56z"/>
			
				<linearGradient id="Path_1167_00000116945836385902763170000002830505727798470811_" gradientUnits="userSpaceOnUse" x1="927.0175" y1="-3104.533" x2="927.7109" y2="-3104.533" gradientTransform="matrix(15.0414 0.4582 0.4439 -14.5726 -12509.918 -45488.3789)">
				<stop  offset="0" style="stop-color:#6DC9C8"/>
				<stop  offset="0.3231" style="stop-color:#6BCEC8"/>
				<stop  offset="0.6858" style="stop-color:#63DBC8"/>
				<stop  offset="1" style="stop-color:#5AEDC8"/>
			</linearGradient>
			<path id="Path_1167_2_" style="fill:url(#Path_1167_00000116945836385902763170000002830505727798470811_);" d="M61.86,180.28
				c1.28,0.92,2.61,1.77,3.98,2.53c0.01-0.14-0.02-0.29-0.07-0.42c-1.12-2.34-1.99-4.15-2.54-5.33l-0.93-1.65
				c-0.45-0.81-0.67-1.24-1.12-1.36c-0.32-0.09-0.39,0.08-0.89,0.02c-0.44-0.03-0.86-0.22-1.17-0.55c-0.23-0.29-0.36-0.66-0.34-1.03
				c0,0-2.16-0.21-3.14,2.65c0.32,0.33,0.77,0.79,1.34,1.32C58.5,177.85,60.13,179.13,61.86,180.28z"/>
			<path id="Path_1168_2_" class="st3" d="M65.84,182.81c-3.16-1.82-6.12-3.95-8.86-6.36c-0.57-0.53-1.03-0.99-1.34-1.32
				c0,0-1.19,0.31-0.58,1.65l10.27,6.84c0.22-0.12,0.39-0.32,0.47-0.56C65.82,182.98,65.84,182.9,65.84,182.81z"/>
			
				<linearGradient id="Path_1173_00000035490874797532487200000015711090530207714980_" gradientUnits="userSpaceOnUse" x1="990.0642" y1="-2902.9941" x2="989.6482" y2="-2903.6377" gradientTransform="matrix(85.1129 2.5927 2.9184 -95.8049 -75712.2656 -280573.3438)">
				<stop  offset="0.355" style="stop-color:#312B30"/>
				<stop  offset="1" style="stop-color:#191519"/>
			</linearGradient>
			<path id="Path_1173_2_" style="fill:url(#Path_1173_00000035490874797532487200000015711090530207714980_);" d="M47.16,113.82
				c1.07-2.42,2.56-4.62,4.41-6.5l23.41,10.87c5.12,0.87,10.08,2.5,14.72,4.85c6.02,3.05,13.2,6.69,14.28,12.58
				c0.62,3.38-0.8,7.36-9.28,16.05c-8.69,8.85-18.58,16.45-29.38,22.56l-5.91-5.42l13.46-22.63c-7.28-3.13-13.95-7.51-19.71-12.96
				c0,0-8.1-7.79-7.59-13.51c0.05-0.47,0.12-0.94,0.21-1.4l0,0C46.07,116.76,46.53,115.26,47.16,113.82z"/>
		</g>
		<path class="st5" d="M86.29,63.69c5.31-1.86,8.49-5.55,8.08-8.6c-0.16-1.23-0.95-2.66-2.28-3.54c-2.61-1.72-5.72-0.26-5.91-0.16
			c-0.52-0.78-1.44-1.89-2.9-2.58c-2.89-1.37-6.04-0.21-7.53,0.37c-9.87,3.8-14.35,7.43-19.29,8.77
			c-11.28,3.06-16.78-8.18-25.58-4.85c-7.62,2.88-12.21,14.21-10.64,23.41c2.35,13.76,18,19.87,27.11,21.23
			c15.22,2.27,26.43-6.64,28.01-7.94c8.21-6.74,11.1-15.22,12.05-18.59C87.03,68.7,86.66,66.2,86.29,63.69z"/>
		<path class="st6" d="M80.65,71.66c-0.5,1.16-1.91,2.79-1.89,5.14c0.01,1.29,0.2,2.43,0.43,3.36c-1.01-0.19-2.34-0.54-3.82-1.23
			c-2.08-0.96-3.57-2.17-4.49-3.03c0.48-1.06,1.06-2.2,1.78-3.39c0.9-1.48,1.84-2.75,2.74-3.81c0.28-0.94,0.57-1.88,0.85-2.83
			c1.87-0.31,3.74-0.61,5.62-0.92C81.18,67.13,81.32,69.49,80.65,71.66z"/>
		<path class="st6" d="M87.5,57.15c2.61,8.79,1.31,15.96-1.93,17.42c-1.02,0.46-3.13,0.71-5.28,0c-0.96-0.32-2.82-0.94-3.56-2.55
			l-0.26-4.13c-0.64,0.08-1.02-0.09-1.22-0.22c-1.27-0.83-1.11-3.76,0.15-4.45c0.35-0.19,0.88-0.26,1.33-0.11
			c0.59,0.2,1.15,0.82,1.15,0.82c0.15-2.82,1.02-3.92,1.79-4.39c1.04-0.64,1.98-0.3,3.91-0.71C85.31,58.45,86.64,57.72,87.5,57.15z"
			/>
		<path class="st7" d="M171.14,218.12c0,3.54-38.31,6.41-85.57,6.41c-47.26,0-85.57-2.87-85.57-6.41c0-3.54,38.31-6.41,85.57-6.41
			C132.83,211.71,171.14,214.58,171.14,218.12z"/>
		<g id="bike_6_">
			<g>
				<path class="st8" d="M115.27,139.81l2.83-0.13l-2.43-7.75h7.75c3.66,0,6.65-2.98,6.65-6.65c0-3.66-2.98-6.64-6.65-6.64h-12.72
					v2.63h12.72c2.21,0,4.01,1.8,4.01,4.01c0,2.21-1.8,4.01-4.01,4.01h-11.35L115.27,139.81z"/>
				<linearGradient id="SVGID_1_" gradientUnits="userSpaceOnUse" x1="29.9201" y1="162.6501" x2="130.25" y2="165.3512">
					<stop  offset="0.054" style="stop-color:#F7AA46"/>
					<stop  offset="0.378" style="stop-color:#F7C145"/>
					<stop  offset="0.754" style="stop-color:#F7D744"/>
					<stop  offset="1" style="stop-color:#F8DF44"/>
				</linearGradient>
				<polygon class="st9" points="35.31,188.14 62.07,142.84 115.85,142.84 131.66,187.86 134.65,186.81 118.1,139.68 60.26,139.68 
					32.59,186.53 				"/>
				
					<linearGradient id="SVGID_00000032642870085426831350000005380896903503831460_" gradientUnits="userSpaceOnUse" x1="30.0262" y1="158.7081" x2="130.3561" y2="161.4093">
					<stop  offset="0.054" style="stop-color:#F7AA46"/>
					<stop  offset="0.378" style="stop-color:#F7C145"/>
					<stop  offset="0.754" style="stop-color:#F7D744"/>
					<stop  offset="1" style="stop-color:#F8DF44"/>
				</linearGradient>
				<polygon style="fill:url(#SVGID_00000032642870085426831350000005380896903503831460_);" points="76.67,191.81 119.97,147.68 
					117.71,145.47 78.03,185.91 58.45,127.62 55.45,128.63 				"/>
			</g>
			<g>
				<path class="st8" d="M71.25,190.32c0,3.4,2.75,6.15,6.15,6.15c3.4,0,6.15-2.75,6.15-6.15c0-3.4-2.75-6.15-6.15-6.15
					C74,184.17,71.25,186.93,71.25,190.32z"/>
				<path class="st8" d="M33.88,190.32l-0.46-0.06v-5.77l45.71-0.04l-1.26,11.91L33.88,190.32z M34.48,185.55v3.79l42.46,5.83
					l1.02-9.66L34.48,185.55z"/>
			</g>
			<path class="st11" d="M54.52,127.19c0,2.26,1.83,3.23,4.08,3.23c2.25,0,17.46-0.69,17.46-2.94c0-4.08-15.21-4.37-17.46-4.37
				C56.35,123.11,54.52,124.93,54.52,127.19z"/>
			<path class="st8" d="M116.79,119.96c0,1.02-0.83,1.85-1.85,1.85h-9.22c-1.02,0-1.85-0.83-1.85-1.85l0,0
				c0-1.02,0.83-1.85,1.85-1.85h9.22C115.96,118.11,116.79,118.94,116.79,119.96L116.79,119.96z"/>
			<g id="wheel_12_">
				
					<linearGradient id="SVGID_00000019654272196300360990000002880566330035892897_" gradientUnits="userSpaceOnUse" x1="29.7281" y1="169.7805" x2="130.058" y2="172.4816">
					<stop  offset="0.054" style="stop-color:#F7AA46"/>
					<stop  offset="0.378" style="stop-color:#F7C145"/>
					<stop  offset="0.754" style="stop-color:#F7D744"/>
					<stop  offset="1" style="stop-color:#F8DF44"/>
				</linearGradient>
				<path style="fill:url(#SVGID_00000019654272196300360990000002880566330035892897_);" d="M100.59,189.29
					c-0.01-0.37-0.02-0.73-0.02-1.1c0-18.33,14.86-33.19,33.19-33.19c0.45,0,0.9,0.01,1.34,0.03l-0.09,3.71l-11.62-0.09
					l-16.28,13.54l-2.88,17.1H100.59z"/>
				<path class="st8" d="M103.14,187.34c0-16.55,13.47-30.02,30.02-30.02c16.55,0,30.02,13.47,30.02,30.02
					c0,16.55-13.47,30.02-30.02,30.02C116.6,217.36,103.14,203.89,103.14,187.34z M105.65,187.34c0,15.17,12.34,27.51,27.51,27.51
					c15.17,0,27.51-12.34,27.51-27.51c0-15.17-12.34-27.51-27.51-27.51C117.99,159.83,105.65,172.17,105.65,187.34z"/>
				<path class="st8" d="M129.99,187.34c0,1.75,1.42,3.17,3.17,3.17c1.75,0,3.17-1.42,3.17-3.17c0-1.75-1.42-3.17-3.17-3.17
					C131.41,184.17,129.99,185.59,129.99,187.34z"/>
			</g>
			<g id="wheel_11_">
				
					<linearGradient id="SVGID_00000117655448934448135960000012819289961482499218_" gradientUnits="userSpaceOnUse" x1="29.6747" y1="171.7638" x2="130.0046" y2="174.465">
					<stop  offset="0.054" style="stop-color:#F7AA46"/>
					<stop  offset="0.378" style="stop-color:#F7C145"/>
					<stop  offset="0.754" style="stop-color:#F7D744"/>
					<stop  offset="1" style="stop-color:#F8DF44"/>
				</linearGradient>
				<path style="fill:url(#SVGID_00000117655448934448135960000012819289961482499218_);" d="M8.06,168.34
					c5.88-8.06,15.41-13.31,26.15-13.31c17.87,0,32.36,14.49,32.36,32.36c0,0.71-0.02,1.41-0.07,2.11h-4.12l-0.49-11.04l-9.33-14.02
					l-9.87-5.22l-10.65-1.64l-12.8,4.03l-8.26,8.76L8.06,168.34z"/>
				<path class="st8" d="M3.85,187.34c0-16.6,13.5-30.1,30.1-30.1c16.6,0,30.1,13.5,30.1,30.1c0,16.6-13.5,30.1-30.1,30.1
					C17.35,217.44,3.85,203.94,3.85,187.34z M6.44,187.34c0,15.17,12.34,27.51,27.51,27.51c15.17,0,27.51-12.34,27.51-27.51
					c0-15.17-12.34-27.51-27.51-27.51C18.78,159.83,6.44,172.17,6.44,187.34z"/>
				<path class="st8" d="M30.78,187.34c0,1.75,1.42,3.17,3.17,3.17c1.75,0,3.17-1.42,3.17-3.17c0-1.75-1.42-3.17-3.17-3.17
					C32.2,184.17,30.78,185.59,30.78,187.34z"/>
			</g>
		</g>
		<g>
			<path id="Path_1236_2_" class="st1" d="M86.5,191.29c0.08-3.77,0.16-7.55,0.24-11.32l-5.01,0.22c0.59,4,1.17,8,1.76,12.01
				c0.55,0.53,1.37,0.68,2.06,0.36C86.04,192.29,86.38,191.83,86.5,191.29z"/>
			
				<linearGradient id="Path_1237_00000031209497008840755870000018249102622727218348_" gradientUnits="userSpaceOnUse" x1="934.9323" y1="-3367.8101" x2="935.6287" y2="-3367.8101" gradientTransform="matrix(18.4466 -3.1743 -1.1674 -6.7843 -21095.7988 -19687.2266)">
				<stop  offset="0" style="stop-color:#6DC9C8"/>
				<stop  offset="0.3231" style="stop-color:#6BCEC8"/>
				<stop  offset="0.6858" style="stop-color:#63DBC8"/>
				<stop  offset="1" style="stop-color:#5AEDC8"/>
			</linearGradient>
			<path id="Path_1237_2_" style="fill:url(#Path_1237_00000031209497008840755870000018249102622727218348_);" d="M90.89,194.26
				c1.56-0.25,3.11-0.59,4.63-1.02c-0.1-0.11-0.22-0.19-0.35-0.25c-2.46-0.87-4.36-1.54-5.58-1.99l-1.83-0.52
				c-0.89-0.26-1.36-0.41-1.76-0.17c-0.29,0.17-0.22,0.33-0.62,0.64c-0.34,0.29-0.77,0.45-1.22,0.44c-0.37-0.04-0.72-0.22-0.98-0.49
				c0,0-1.68,1.38-0.36,4.12c0.46,0.01,1.11,0.01,1.89-0.01C86.78,194.91,88.85,194.67,90.89,194.26z"/>
			<path id="Path_1238_2_" class="st3" d="M95.52,193.24c-3.54,0.94-7.16,1.53-10.82,1.75c-0.78,0.03-1.43,0.02-1.89,0.02
				c0,0-0.63,1.07,0.76,1.58l12.16-2.41c0.07-0.24,0.05-0.51-0.07-0.73C95.63,193.37,95.58,193.3,95.52,193.24z"/>
			
				<linearGradient id="Path_1243_00000173846591618900209550000004673279629453530029_" gradientUnits="userSpaceOnUse" x1="75.0355" y1="179.7789" x2="70.3752" y2="124.601">
				<stop  offset="0.355" style="stop-color:#312B30"/>
				<stop  offset="1" style="stop-color:#191519"/>
			</linearGradient>
			<path id="Path_1243_2_" style="fill:url(#Path_1243_00000173846591618900209550000004673279629453530029_);" d="M46.91,111.53
				l28.25,5.8c4.37,4.78,7.54,8.21,8.9,9.7c8.76,9.53,11.56,12.51,12.64,17.53c0.55,2.8,0.53,5.69-0.05,8.49
				c-2.03,12.68-5.84,25.85-8.9,35.34l-6.13,0.77c-0.83-11.92-1.65-23.83-2.48-35.75c-1.78-1.53-4.6-3.88-8.21-6.56
				c-7.42-5.48-9.28-5.72-14.25-9.81c-5.46-4.5-9.58-7.89-10.98-13.57C44.49,118.53,45.85,114.08,46.91,111.53z"/>
		</g>
		
			<linearGradient id="Path_1245_00000124855038393415912290000016204273593617728656_" gradientUnits="userSpaceOnUse" x1="88.9512" y1="114.187" x2="47.3943" y2="93.6559" gradientTransform="matrix(0.9999 -0.0136 0.0136 0.9999 9.8143 -0.5065)">
			<stop  offset="0" style="stop-color:#DD1545"/>
			<stop  offset="1" style="stop-color:#FF6B47"/>
		</linearGradient>
		<path id="Path_1245_2_" style="fill:url(#Path_1245_00000124855038393415912290000016204273593617728656_);" d="M46.51,111.23
			c9.1,5.22,19.34,8.16,29.83,8.57c0.99-4.35,2.38-10.29,4.19-17.42c0.71-2.77,0.97-3.75,1.21-5.14c0.79-4.55,0.89-10.94-1.99-19.23
			c-1.48,0.27-3.01,0.16-4.44-0.32c-1.77-0.61-3.31-1.76-4.4-3.28c-2.3,0.96-4.46,2.23-6.41,3.78c-4.71,3.77-6.73,8.08-12.68,21.23
			C49.37,104.84,47.46,109.11,46.51,111.23z"/>
		<g>
			<path id="Path_1244_2_" class="st1" d="M112.33,113.63c3.42,2.49,5.01,5.83,4.16,7.78c-0.46,0.83-1.07,1.56-1.8,2.17
				c-1.2,1.08-2.04,1.3-2.45,1.21c-0.19-0.03-0.36-0.13-0.47-0.29c-0.05-0.12-0.07-0.26-0.03-0.4c0.13-0.62,2.78-2.37,2.99-2.5
				c-0.92,0.63-1.72,1.18-2.46,1.69c-0.25,0.18-0.66,0.46-1.01,0.32c-0.23-0.1-0.39-0.33-0.4-0.58c-0.01-0.4,0.42-0.69,0.77-0.93
				c0.53-0.37,1.26-0.89,2.25-1.64c-0.73,0.56-1.52,1.04-2.35,1.44c-0.43,0.21-0.89,0.4-1.21,0.19c-0.18-0.12-0.29-0.32-0.31-0.54
				c-0.03-0.91,2.22-1.05,2.68-2.4c0.31-0.91-2.59-1.72-2.95-0.38l-2.04-1.06L112.33,113.63z"/>
			
				<linearGradient id="Path_1246_00000102543499228430498790000005489801782253502080_" gradientUnits="userSpaceOnUse" x1="135.14" y1="113.0013" x2="112.63" y2="96.1806" gradientTransform="matrix(0.9984 0.0557 -0.0557 0.9984 -27.4902 -6.5197)">
				<stop  offset="0" style="stop-color:#DD1545"/>
				<stop  offset="1" style="stop-color:#FF6B47"/>
			</linearGradient>
			<path id="Path_1246_2_" style="fill:url(#Path_1246_00000102543499228430498790000005489801782253502080_);" d="M69.3,81.44
				c1.57-0.79,3.38-0.97,5.08-0.51c1.02,0.33,1.88,1,3.59,2.34c1.45,1.14,2.44,2.07,2.45,2.08c1.61,1.52,10.27,9.24,32.19,28.59
				l-4.08,4.14c-2.75-1.02-32.58-12.24-40.43-20.98c-1.78-1.82-2.91-4.18-3.2-6.71C64.67,87.37,65.86,83.13,69.3,81.44z"/>
		</g>
	</g>
	
		<linearGradient id="SVGID_00000041986317463559767380000016026417796133840825_" gradientUnits="userSpaceOnUse" x1="45.5345" y1="16.5818" x2="137.4613" y2="16.5818">
		<stop  offset="0" style="stop-color:#D0ECF4"/>
		<stop  offset="0.371" style="stop-color:#D5EDF1"/>
		<stop  offset="0.7876" style="stop-color:#E2F2EA"/>
		<stop  offset="1" style="stop-color:#ECF5E4"/>
	</linearGradient>
	<path style="fill:url(#SVGID_00000041986317463559767380000016026417796133840825_);" d="M49.45,33.16h85.2
		c2.22-1.01,3.31-3.51,2.6-5.69c-0.77-2.38-3.48-3.77-6.02-2.93c-0.39-0.8-1.18-2.11-2.66-3.02c-2.44-1.5-5.74-1.3-8.55,0.42
		c0.17-0.64,1.31-5.29-1.63-9.27c-2.59-3.51-7.31-5.08-11.87-3.9C99.74,0.38,89.37-2.08,82.45,1.78c-5.3,2.96-7.02,8.78-7.48,10.57
		c-0.44-0.09-4.13-0.77-6.99,1.79c-1.81,1.62-2.3,3.65-2.44,4.39c-2.12-2.91-5.63-4.39-8.94-3.74c-4.09,0.8-7.21,4.68-7.15,9.27
		c-2.15,0.38-3.76,2.15-3.9,4.23C45.39,30.58,47.05,32.73,49.45,33.16z"/>
	
		<linearGradient id="SVGID_00000159442618240852189130000007317572567090195890_" gradientUnits="userSpaceOnUse" x1="127.9034" y1="44.2197" x2="186.6499" y2="44.2197">
		<stop  offset="0" style="stop-color:#D0ECF4"/>
		<stop  offset="0.371" style="stop-color:#D5EDF1"/>
		<stop  offset="0.7876" style="stop-color:#E2F2EA"/>
		<stop  offset="1" style="stop-color:#ECF5E4"/>
	</linearGradient>
	<path style="fill:url(#SVGID_00000159442618240852189130000007317572567090195890_);" d="M130.4,54.82h54.45
		c1.42-0.65,2.11-2.24,1.66-3.64c-0.49-1.52-2.23-2.41-3.84-1.87c-0.25-0.51-0.75-1.35-1.7-1.93c-1.56-0.96-3.67-0.83-5.47,0.27
		c0.11-0.41,0.84-3.38-1.04-5.92c-1.66-2.24-4.67-3.25-7.59-2.49c-4.33-5.36-10.96-6.94-15.38-4.47c-3.38,1.89-4.49,5.61-4.78,6.75
		c-0.28-0.06-2.64-0.49-4.47,1.14c-1.15,1.03-1.47,2.33-1.56,2.81c-1.35-1.86-3.6-2.8-5.71-2.39c-2.61,0.51-4.61,2.99-4.57,5.92
		c-1.37,0.24-2.4,1.38-2.49,2.7C127.81,53.16,128.87,54.54,130.4,54.82z"/>
</g>
</svg>
