<svg xmlns="http://www.w3.org/2000/svg" xmlns:xlink="http://www.w3.org/1999/xlink" viewBox="0 0 800 800"><defs><style>.cls-1{fill:url(#linear-gradient);}.cls-2{fill:url(#linear-gradient-2);}.cls-3{fill:#1e1a1e;}.cls-4{fill:#312b30;}.cls-5{fill:#494948;}.cls-6{fill:url(#linear-gradient-3);}.cls-20,.cls-7{fill:#fff;}.cls-7{isolation:isolate;opacity:0.2;}.cls-8{fill:url(#linear-gradient-4);}.cls-9{fill:url(#linear-gradient-5);}.cls-10{fill:url(#linear-gradient-6);}.cls-11{fill:url(#linear-gradient-7);}.cls-12{fill:url(#linear-gradient-8);}.cls-13{fill:#e5f4f1;}.cls-14{fill:url(#linear-gradient-9);}.cls-15{fill:url(#linear-gradient-10);}.cls-16{fill:url(#linear-gradient-11);}.cls-17{fill:#f9bd95;}.cls-18{fill:#ae5c3c;}.cls-19{fill:#e59a7e;}.cls-21{fill:url(#linear-gradient-12);}.cls-22{fill:#293657;opacity:0.1;}.cls-23{fill:url(#linear-gradient-13);}.cls-24{fill:url(#linear-gradient-14);}.cls-25{fill:url(#linear-gradient-15);}.cls-26{fill:#b6c5fc;}.cls-27{fill:url(#linear-gradient-16);}.cls-28{fill:url(#linear-gradient-17);}.cls-29{fill:url(#linear-gradient-18);}.cls-30{fill:url(#linear-gradient-19);}.cls-31{fill:url(#linear-gradient-20);}.cls-32{fill:url(#linear-gradient-21);}.cls-33{fill:url(#linear-gradient-22);}.cls-34{fill:url(#linear-gradient-23);}.cls-35{fill:url(#linear-gradient-24);}.cls-36{fill:url(#linear-gradient-25);}.cls-37{fill:url(#linear-gradient-26);}.cls-38{fill:url(#linear-gradient-27);}.cls-39{fill:url(#linear-gradient-28);}.cls-40{fill:url(#linear-gradient-29);}.cls-41{fill:url(#linear-gradient-30);}.cls-42{fill:url(#linear-gradient-31);}.cls-43{fill:url(#linear-gradient-32);}.cls-44{fill:url(#linear-gradient-33);}.cls-45{fill:url(#linear-gradient-34);}.cls-46{fill:url(#linear-gradient-35);}.cls-47{fill:url(#linear-gradient-36);}.cls-48{fill:url(#linear-gradient-37);}.cls-49{fill:url(#linear-gradient-38);}.cls-50{fill:url(#linear-gradient-39);}.cls-51{fill:url(#linear-gradient-40);}.cls-52{fill:url(#linear-gradient-41);}.cls-53{fill:url(#linear-gradient-42);}.cls-54{fill:url(#linear-gradient-43);}.cls-55{fill:url(#linear-gradient-44);}.cls-56{fill:url(#linear-gradient-45);}.cls-57{fill:url(#linear-gradient-46);}.cls-58{fill:url(#linear-gradient-47);}.cls-59{fill:url(#linear-gradient-48);}.cls-60{fill:url(#linear-gradient-49);}.cls-61{fill:url(#linear-gradient-50);}.cls-62{fill:url(#linear-gradient-51);}.cls-63{fill:url(#linear-gradient-52);}.cls-64{fill:url(#linear-gradient-53);}.cls-65{fill:url(#linear-gradient-54);}.cls-66{fill:url(#linear-gradient-55);}.cls-67{fill:url(#linear-gradient-56);}.cls-68{fill:url(#linear-gradient-57);}.cls-69{fill:url(#linear-gradient-58);}.cls-70{fill:#bababa;}.cls-71{fill:url(#linear-gradient-59);}.cls-72{fill:url(#linear-gradient-60);}.cls-73{fill:url(#linear-gradient-61);}.cls-74{fill:url(#linear-gradient-62);}.cls-75{fill:url(#linear-gradient-63);}.cls-76{fill:url(#linear-gradient-64);}.cls-77{fill:url(#linear-gradient-65);}.cls-78{fill:url(#linear-gradient-66);}.cls-79{fill:url(#linear-gradient-67);}.cls-80{fill:url(#linear-gradient-68);}</style><linearGradient id="linear-gradient" x1="749.976" y1="396.433" x2="761.94" y2="506.772" gradientTransform="matrix(-1, -0.017, -0.017, 1, 1048.522, 12.985)" gradientUnits="userSpaceOnUse"><stop offset="0" stop-color="#c06c84"/><stop offset="0.259" stop-color="#a36681"/><stop offset="0.524" stop-color="#8c6180"/><stop offset="0.776" stop-color="#7f5e7e"/><stop offset="1" stop-color="#7a5d7e"/></linearGradient><linearGradient id="linear-gradient-2" x1="796.886" y1="283.314" x2="743.129" y2="383.945" gradientTransform="matrix(-1, -0.017, -0.017, 1, 1048.522, 12.985)" gradientUnits="userSpaceOnUse"><stop offset="0" stop-color="#dd1545"/><stop offset="1" stop-color="#ff6b47"/></linearGradient><linearGradient id="linear-gradient-3" x1="1302.634" y1="-3265.249" x2="1301.156" y2="-3262.254" gradientTransform="matrix(87.155, 0, 0, -140.378, -113003.692, -457739.408)" gradientUnits="userSpaceOnUse"><stop offset="0" stop-color="#ecf7ff"/><stop offset="0.575" stop-color="#eff9fa"/><stop offset="1" stop-color="#f5fcf2"/></linearGradient><linearGradient id="linear-gradient-4" x1="335.794" y1="278.061" x2="401.647" y2="278.061" gradientTransform="translate(50.283 31.027) rotate(-0.785)" gradientUnits="userSpaceOnUse"><stop offset="0" stop-color="#7a5d7e"/><stop offset="0.224" stop-color="#7f5e7e"/><stop offset="0.476" stop-color="#8c6180"/><stop offset="0.741" stop-color="#a36681"/><stop offset="1" stop-color="#c06c84"/></linearGradient><linearGradient id="linear-gradient-5" x1="326.637" y1="278.296" x2="410.999" y2="278.296" gradientTransform="translate(50.283 31.027) rotate(-0.785)" xlink:href="#linear-gradient"/><linearGradient id="linear-gradient-6" x1="827.886" y1="243.978" x2="876.373" y2="243.978" gradientTransform="matrix(-1, 0, 0, 1, 1262.396, 0)" gradientUnits="userSpaceOnUse"><stop offset="0" stop-color="#5aedc8"/><stop offset="0.314" stop-color="#63dbc8"/><stop offset="0.677" stop-color="#6bcec8"/><stop offset="1" stop-color="#6dc9c8"/></linearGradient><linearGradient id="linear-gradient-7" x1="407.177" y1="244" x2="413.349" y2="244" gradientTransform="matrix(1, 0, 0, 1, 0, 0)" xlink:href="#linear-gradient-6"/><linearGradient id="linear-gradient-8" x1="821.144" y1="244.17" x2="883.256" y2="244.17" gradientTransform="matrix(-1, 0, 0, 1, 1262.396, 0)" gradientUnits="userSpaceOnUse"><stop offset="0" stop-color="#6dc9c8"/><stop offset="0.323" stop-color="#6bcec8"/><stop offset="0.686" stop-color="#63dbc8"/><stop offset="1" stop-color="#5aedc8"/></linearGradient><linearGradient id="linear-gradient-9" x1="491.246" y1="335.465" x2="470.357" y2="335.465" gradientTransform="matrix(1, 0, 0, 1, 0, 0)" xlink:href="#linear-gradient-2"/><linearGradient id="linear-gradient-10" x1="-308.188" y1="-1572.931" x2="-259.15" y2="-1563.4" gradientTransform="translate(245.19 1918.985) rotate(18.401)" xlink:href="#linear-gradient-2"/><linearGradient id="linear-gradient-11" x1="-262.732" y1="-1645.713" x2="-296.002" y2="-1625.44" gradientTransform="translate(245.19 1918.985) rotate(18.401)" xlink:href="#linear-gradient-2"/><linearGradient id="linear-gradient-12" x1="865.356" y1="319.891" x2="811.599" y2="420.522" xlink:href="#linear-gradient-2"/><linearGradient id="linear-gradient-13" x1="465.394" y1="506.77" x2="367.136" y2="506.77" gradientUnits="userSpaceOnUse"><stop offset="0.355" stop-color="#312b30"/><stop offset="1" stop-color="#191519"/></linearGradient><linearGradient id="linear-gradient-14" x1="467.513" y1="500.362" x2="561.953" y2="501.38" xlink:href="#linear-gradient-13"/><linearGradient id="linear-gradient-15" x1="489.338" y1="467.178" x2="560.609" y2="467.178" gradientUnits="userSpaceOnUse"><stop offset="0.355" stop-color="#f7aa46"/><stop offset="1" stop-color="#f46b45"/></linearGradient><linearGradient id="linear-gradient-16" x1="499.577" y1="466.852" x2="523.2" y2="466.852" gradientUnits="userSpaceOnUse"><stop offset="0" stop-color="#f46b45"/><stop offset="0.645" stop-color="#f7aa46"/></linearGradient><linearGradient id="linear-gradient-17" x1="523.2" y1="470.412" x2="551.336" y2="470.412" xlink:href="#linear-gradient-16"/><linearGradient id="linear-gradient-18" x1="544.648" y1="459.637" x2="549.366" y2="459.637" xlink:href="#linear-gradient-13"/><linearGradient id="linear-gradient-19" x1="489.338" y1="439.385" x2="554.235" y2="439.385" xlink:href="#linear-gradient-16"/><linearGradient id="linear-gradient-20" x1="490.543" y1="427.414" x2="524.14" y2="427.414" xlink:href="#linear-gradient-15"/><linearGradient id="linear-gradient-21" x1="454.404" y1="506.315" x2="557.816" y2="506.315" gradientUnits="userSpaceOnUse"><stop offset="0" stop-color="#96aebb"/><stop offset="0.228" stop-color="#9bb2be"/><stop offset="0.484" stop-color="#a8bfc6"/><stop offset="0.753" stop-color="#bfd3d3"/><stop offset="1" stop-color="#daece4"/></linearGradient><linearGradient id="linear-gradient-22" x1="3138.421" y1="510.328" x2="3169.938" y2="510.328" gradientTransform="matrix(-0.987, -0.162, -0.162, 0.987, 3716.46, 516.701)" xlink:href="#linear-gradient-13"/><linearGradient id="linear-gradient-23" x1="511.212" y1="510.328" x2="531.328" y2="510.328" gradientTransform="translate(513.533 -219.122) rotate(45)" xlink:href="#linear-gradient-21"/><linearGradient id="linear-gradient-24" x1="3150.041" y1="510.328" x2="3158.317" y2="510.328" gradientTransform="matrix(-0.973, -0.231, -0.231, 0.973, 3708.138, 740.873)" xlink:href="#linear-gradient-13"/><linearGradient id="linear-gradient-25" x1="3152.803" y1="503.586" x2="3155.555" y2="503.586" gradientTransform="matrix(-1, 0, 0, 1, 3675.449, 0)" xlink:href="#linear-gradient-16"/><linearGradient id="linear-gradient-26" x1="3152.803" y1="517.618" x2="3155.555" y2="517.618" gradientTransform="matrix(-1, 0, 0, 1, 3675.449, 0)" xlink:href="#linear-gradient-16"/><linearGradient id="linear-gradient-27" x1="3145.787" y1="510.602" x2="3148.539" y2="510.602" gradientTransform="matrix(-1, 0, 0, 1, 3675.449, 0)" xlink:href="#linear-gradient-16"/><linearGradient id="linear-gradient-28" x1="3159.819" y1="510.602" x2="3162.571" y2="510.602" gradientTransform="matrix(-1, 0, 0, 1, 3675.449, 0)" xlink:href="#linear-gradient-16"/><linearGradient id="linear-gradient-29" x1="3157.924" y1="505.806" x2="3160.676" y2="505.806" gradientTransform="matrix(-1, 0, 0, 1, 3675.449, 0)" xlink:href="#linear-gradient-16"/><linearGradient id="linear-gradient-30" x1="3147.682" y1="515.397" x2="3150.434" y2="515.397" gradientTransform="matrix(-1, 0, 0, 1, 3675.449, 0)" xlink:href="#linear-gradient-16"/><linearGradient id="linear-gradient-31" x1="3148.008" y1="505.48" x2="3150.76" y2="505.48" gradientTransform="matrix(-1, 0, 0, 1, 3675.449, 0)" xlink:href="#linear-gradient-16"/><linearGradient id="linear-gradient-32" x1="3157.599" y1="515.723" x2="3160.351" y2="515.723" gradientTransform="matrix(-1, 0, 0, 1, 3675.449, 0)" xlink:href="#linear-gradient-16"/><linearGradient id="linear-gradient-33" x1="417.115" y1="510.328" x2="448.632" y2="510.328" gradientTransform="translate(866.497 0.637) rotate(80.695)" gradientUnits="userSpaceOnUse"><stop offset="0" stop-color="#191519"/><stop offset="0.645" stop-color="#312b30"/></linearGradient><linearGradient id="linear-gradient-34" x1="422.815" y1="510.328" x2="442.931" y2="510.328" gradientTransform="translate(612.586 -134.278) rotate(55.884)" xlink:href="#linear-gradient-21"/><linearGradient id="linear-gradient-35" x1="428.735" y1="510.328" x2="437.011" y2="510.328" gradientTransform="translate(829.666 -28.531) rotate(76.672)" xlink:href="#linear-gradient-13"/><linearGradient id="linear-gradient-36" x1="431.497" y1="503.586" x2="434.249" y2="503.586" xlink:href="#linear-gradient-16"/><linearGradient id="linear-gradient-37" x1="431.497" y1="517.618" x2="434.249" y2="517.618" xlink:href="#linear-gradient-16"/><linearGradient id="linear-gradient-38" x1="424.481" y1="510.602" x2="427.233" y2="510.602" xlink:href="#linear-gradient-16"/><linearGradient id="linear-gradient-39" x1="438.513" y1="510.602" x2="441.265" y2="510.602" xlink:href="#linear-gradient-16"/><linearGradient id="linear-gradient-40" x1="436.618" y1="505.806" x2="439.37" y2="505.806" xlink:href="#linear-gradient-16"/><linearGradient id="linear-gradient-41" x1="426.376" y1="515.397" x2="429.128" y2="515.397" xlink:href="#linear-gradient-16"/><linearGradient id="linear-gradient-42" x1="426.702" y1="505.48" x2="429.454" y2="505.48" xlink:href="#linear-gradient-16"/><linearGradient id="linear-gradient-43" x1="436.293" y1="515.723" x2="439.045" y2="515.723" xlink:href="#linear-gradient-16"/><linearGradient id="linear-gradient-44" x1="374.918" y1="510.328" x2="406.435" y2="510.328" gradientTransform="translate(475.283 -126.779) rotate(45)" xlink:href="#linear-gradient-33"/><linearGradient id="linear-gradient-45" x1="380.619" y1="510.328" x2="400.735" y2="510.328" gradientTransform="translate(475.283 -126.779) rotate(45)" xlink:href="#linear-gradient-21"/><linearGradient id="linear-gradient-46" x1="386.538" y1="510.328" x2="394.815" y2="510.328" gradientTransform="translate(475.283 -126.779) rotate(45)" xlink:href="#linear-gradient-13"/><linearGradient id="linear-gradient-47" x1="389.301" y1="503.586" x2="392.053" y2="503.586" xlink:href="#linear-gradient-16"/><linearGradient id="linear-gradient-48" x1="389.301" y1="517.618" x2="392.053" y2="517.618" xlink:href="#linear-gradient-16"/><linearGradient id="linear-gradient-49" x1="382.285" y1="510.602" x2="385.037" y2="510.602" xlink:href="#linear-gradient-16"/><linearGradient id="linear-gradient-50" x1="396.317" y1="510.602" x2="399.069" y2="510.602" xlink:href="#linear-gradient-16"/><linearGradient id="linear-gradient-51" x1="394.422" y1="505.806" x2="397.174" y2="505.806" xlink:href="#linear-gradient-16"/><linearGradient id="linear-gradient-52" x1="384.18" y1="515.397" x2="386.931" y2="515.397" xlink:href="#linear-gradient-16"/><linearGradient id="linear-gradient-53" x1="384.505" y1="505.48" x2="387.257" y2="505.48" xlink:href="#linear-gradient-16"/><linearGradient id="linear-gradient-54" x1="394.096" y1="515.723" x2="396.848" y2="515.723" xlink:href="#linear-gradient-16"/><linearGradient id="linear-gradient-55" x1="454.404" y1="504.157" x2="557.816" y2="504.157" xlink:href="#linear-gradient-21"/><linearGradient id="linear-gradient-56" x1="454.404" y1="507.62" x2="557.816" y2="507.62" xlink:href="#linear-gradient-21"/><linearGradient id="linear-gradient-57" x1="454.404" y1="504.608" x2="557.816" y2="504.608" xlink:href="#linear-gradient-21"/><linearGradient id="linear-gradient-58" x1="557.899" y1="480.416" x2="560.609" y2="480.416" gradientUnits="userSpaceOnUse"><stop offset="0" stop-color="#f8df44"/><stop offset="0.246" stop-color="#f8d744"/><stop offset="0.622" stop-color="#f7c245"/><stop offset="0.946" stop-color="#f7aa46"/></linearGradient><linearGradient id="linear-gradient-59" x1="345.19" y1="451.205" x2="481.709" y2="451.205" xlink:href="#linear-gradient-21"/><linearGradient id="linear-gradient-60" x1="451.685" y1="503.017" x2="484.641" y2="503.017" xlink:href="#linear-gradient-13"/><linearGradient id="linear-gradient-61" x1="451.788" y1="507.535" x2="484.744" y2="507.535" xlink:href="#linear-gradient-13"/><linearGradient id="linear-gradient-62" x1="451.89" y1="512.052" x2="484.847" y2="512.052" xlink:href="#linear-gradient-13"/><linearGradient id="linear-gradient-63" x1="454.404" y1="513.944" x2="557.816" y2="513.944" xlink:href="#linear-gradient-21"/><linearGradient id="linear-gradient-64" x1="454.404" y1="507.536" x2="557.816" y2="507.536" xlink:href="#linear-gradient-21"/><linearGradient id="linear-gradient-65" x1="454.404" y1="507.569" x2="557.816" y2="507.569" xlink:href="#linear-gradient-21"/><linearGradient id="linear-gradient-66" x1="501.69" y1="504.006" x2="539.981" y2="504.006" gradientTransform="matrix(1, 0, 0, 1, 0, 0)" xlink:href="#linear-gradient-33"/><linearGradient id="linear-gradient-67" x1="413.354" y1="504.006" x2="451.645" y2="504.006" xlink:href="#linear-gradient-13"/><linearGradient id="linear-gradient-68" x1="371.194" y1="504.006" x2="409.485" y2="504.006" xlink:href="#linear-gradient-13"/></defs><g id="Layer_2" data-name="Layer 2"><path class="cls-1" d="M235.328,420.965c23.356,70.282,70.035,120.569,70.035,120.569l48.016-211.669Z"/><path class="cls-2" d="M192.828,293.931A24.952,24.952,0,0,0,213.341,280.2s5.166-2.594,11.206-5.129A117.229,117.229,0,0,1,241,270.293c40.657-8.333,75.753,8.467,75.753,8.467,49.628,23.756,61.373,78.5,62.572,84.555l-22.416,5.43c-5.08-8.013-18.63-26.929-43.983-37.647a95.384,95.384,0,0,0-37.718-7.453c9.1,9.972,29.449,32.3,38.548,42.275-14.651,23.9-40.555,35.435-55.206,59.333-12.93-6.631-44.07-24.434-63.705-56.755,0,0-12.5-20.577-15.923-51.39a21.865,21.865,0,0,1,1.5-11.62C183.312,299,189.227,295.577,192.828,293.931Z"/><g id="Group_1726" data-name="Group 1726"><path id="Rectangle_1371" data-name="Rectangle 1371" class="cls-3" d="M603.188,205.926h0A13.377,13.377,0,0,1,616.565,219.3h0v66.209a13.377,13.377,0,0,1-13.377,13.374h0v-92.96Z"/><path id="Rectangle_1372" data-name="Rectangle 1372" class="cls-3" d="M604.763,324.431h0a11.8,11.8,0,0,1,11.8,11.8h0V363a11.8,11.8,0,0,1-11.789,11.815h-.013V324.431Z"/><rect id="Rectangle_1373" data-name="Rectangle 1373" class="cls-4" x="300.25" y="100" width="310.021" height="600" rx="38.569"/><path id="Rectangle_1375" data-name="Rectangle 1375" class="cls-5" d="M429.108,131.112h49.153a2.963,2.963,0,0,1,2.963,2.963h0a2.963,2.963,0,0,1-2.963,2.964H429.108a2.964,2.964,0,0,1-2.963-2.964h0A2.964,2.964,0,0,1,429.108,131.112Z"/><ellipse id="Ellipse_68" data-name="Ellipse 68" class="cls-5" cx="500.897" cy="133.333" rx="7.868" ry="7.408"/><path id="Path_947" data-name="Path 947" class="cls-5" d="M417.491,132.777a3.349,3.349,0,1,1-3.545-3.14c.066,0,.133-.007.2-.007A3.25,3.25,0,0,1,417.491,132.777Z"/><ellipse id="Ellipse_69" data-name="Ellipse 69" class="cls-3" cx="456.01" cy="659.272" rx="37.598" ry="19.664"/><rect id="Rectangle_1386" data-name="Rectangle 1386" class="cls-6" x="313.624" y="163.703" width="280.121" height="451.183" rx="35.355"/><rect id="Rectangle_1385" data-name="Rectangle 1385" class="cls-7" x="329.893" y="179.41" width="250.494" height="422.282" rx="32.141"/></g><path class="cls-8" d="M440.525,276.28l-.033-.021a32.9,32.9,0,0,0-36.761.912h0a33.145,33.145,0,0,0-3.491,2.851A32.92,32.92,0,0,0,424.307,336.9l.165-.006c.653-.034,1.3-.081,1.95-.152h0a32.941,32.941,0,0,0,27.725-22.755c.023-.069.046-.138.068-.208.2-.655.394-1.318.558-1.994.06-.249.107-.5.161-.747A32.926,32.926,0,0,0,440.525,276.28Zm-11.1.393a28.165,28.165,0,0,1,6.384,2.4l-10.356,12.245a5.243,5.243,0,0,1-7.772.261L407.1,280.654A28.059,28.059,0,0,1,429.423,276.673Zm-33.982,20.7a28,28,0,0,1,7.35-13.159l8.119,13.33a5.244,5.244,0,0,1-2.2,7.448l-13.1,6.339A28,28,0,0,1,395.441,297.37Zm20.7,33.982A28.08,28.08,0,0,1,397.471,316.3l13.949-4.109a5.245,5.245,0,0,1,6.615,3.957l3.337,15.962A28.279,28.279,0,0,1,416.138,331.352Zm5.088-20.941a6.585,6.585,0,1,1,7.953-4.844A6.585,6.585,0,0,1,421.226,310.411Zm5.7,21.429,1.553-15.046a5.244,5.244,0,0,1,6.222-4.609l14.01,2.737A28.165,28.165,0,0,1,426.929,331.84Zm23.492-22.573-14.025-5.5a5.245,5.245,0,0,1-2.893-6.975l6.529-15A28.14,28.14,0,0,1,450.421,309.267Z"/><path class="cls-9" d="M458.09,308.279l5.817,1.413,1.1-9.59-6.1-.249-1.2-5.219,5.219-1.2-3.839-9.557-4.338,2.642-3.8-4.621,3.175-2.925-5.85-6.349-3.458,4.088-4.91-3.58,2.5-4.733-8.073-3.059-1.53,4.037-5.707-1.808.834-5.01-10.3,0,.837,5.288-5.289.837-2.507-5.566-8.488,4.6,3.481,4.869-4.869,3.481-3.481-4.869-7.1,6.544,3.759,3.2-3.478,5.429-4.732-2.5-3.059,8.073,4.036,1.529-1.111,6.681-5.01-.833.281,8.628,5.01.834.838,5.288-3.9,2.785,3.9,7.514,2.922-2.089,3.481,4.87-3.9,2.785,4.874,6.818,5.844-4.177,4.573,3.351-1.7,6.981L411,344.888l1.13-4.653,5.817,1.413-.848,3.49,8.426.815,1.131-4.653,5.219-1.2,2.642,4.338,8.111-2.958-2.642-4.338,5.784-3.523L448.7,336.8l6.349-5.85-4.088-3.457,3.74-5.252,4.371,2.294,3.424-9.024-5.817-1.413Zm-43.082,27.726a32.924,32.924,0,1,1,39.766-24.22A32.924,32.924,0,0,1,415.008,336.005Z"/><path class="cls-10" d="M386.662,249.5c.043.183.08.366.127.548.128.5.275.982.431,1.463.017.051.035.023.052.074,3.076,9.263,11.32,15.865,20.639,16.394h0c.477,0,.957.152,1.438.17.04,0,.081.041.121.042a24.139,24.139,0,0,0,17.046-42.081,16.043,16.043,0,0,0-2.7-2.061h0a23.971,23.971,0,0,0-26.924-.3c-.008,0,.009.01,0,.015A24.231,24.231,0,0,0,386.662,249.5Zm34.908-22.85-7.677,8.15a3.86,3.86,0,0,1-5.724-.114l-7.747-8.91a20.714,20.714,0,0,1,21.148.874Zm8.769,22.466-9.711-4.535a3.861,3.861,0,0,1-1.691-5.461l5.843-9.9a20.729,20.729,0,0,1,5.559,19.891ZM411.584,264.67l2.3-11.784a3.86,3.86,0,0,1,4.829-2.98l10.311,2.884a20.7,20.7,0,0,1-17.436,11.88Zm-6.016-19.461a4.848,4.848,0,1,1,5.9,3.486A4.848,4.848,0,0,1,405.568,245.209Zm-14.286,7.084,10.286-2.157a3.861,3.861,0,0,1,4.627,3.33l1.3,11.062A20.737,20.737,0,0,1,391.282,252.293Zm6.057-24.48,4.958,10.978a3.86,3.86,0,0,1-2.06,5.163l-10.269,4.192A20.72,20.72,0,0,1,397.339,227.813Z"/><path class="cls-11" d="M409.494,241.012a3.085,3.085,0,1,1-2.218,3.757A3.085,3.085,0,0,1,409.494,241.012Z"/><path class="cls-12" d="M385.412,251.764l-4.269,1.1,2.613,6.609,3.194-1.732,2.806,3.828-2.974,2.587,4.733,4.242,2.121-2.367,4.294,2.536-1.9,3.22,6,2.095,1.9-3.22,3.854.828.879,3.415,6.195-.685-.659-2.561,4.268-1.1.879,3.414,5.975-1.539L424,267.313l3.333-2.514,4.344,3.017,3.519-5.069-2.9-2.011,2.514-3.62,2.172,1.508,2.8-5.571-2.9-2.011.563-3.9,3.68-.664.12-6.355-3.68.664-.885-4.907,2.956-1.167-2.333-5.913-3.459,1.891-2.615-3.961,2.735-2.394-5.289-4.746-2.514,3.62-3.62-2.513,2.513-3.62-6.3-3.3-1.789,4.123-3.9-.563.563-3.9-7.582.1.664,3.681-4.183,1.388-1.167-2.957-5.912,2.334,1.891,3.459-3.58,2.685-2.586-2.975-4.243,4.733,2.367,2.121-2.755,3.44-3.22-1.9-2.73,7.074,3.854.828-.828,3.854-4.487.246.9,7.048,4.268-1.1Zm1.377-1.72a24.24,24.24,0,1,1,29.519,17.43A24.241,24.241,0,0,1,386.789,250.044Z"/><path class="cls-13" d="M498.719,307.318c-1.041-2.757-6.375-12.923-2.537-18.883,4.146-6.438,18.757-12.4,32.583-24.437s3.322-26.855,3.322-26.855L510.308,229.9l-.553-.184-21.779-7.246s-17.287,5.573-13.428,23.493,11.987,31.447,11.45,39.085c-.5,7.072-10.859,12.017-13.343,13.6-2.519,1.6-2.643,1.293-6.073,3.191-4.507,2.5-17.568,9.228-20.676,20.581-2.5,9.126,2.325,17.789,4.553,21.257l19.252,6.4.553.184,19.253,6.4c3.861-1.443,12.913-5.489,16.38-14.293,4.312-10.953-2.112-24.168-4.227-28.866C500.061,309.936,499.774,310.111,498.719,307.318Z"/><path class="cls-14" d="M446.84,327.138c.6.117,1.518.292,2.647.48,6.685,1.113,12.988,2.163,19.667.83a43.263,43.263,0,0,0,9.424-3.177h0a37.371,37.371,0,0,0,6.305,9.514,38.571,38.571,0,0,0,17.628,10.875c-6.043-1.163-12.443-2.653-19.127-4.559A225.331,225.331,0,0,1,446.84,327.138Z"/><path class="cls-15" d="M446.84,327.138c9.257,3.555,19,7.05,29.205,10.418q13.615,4.489,26.467,8.1a24.69,24.69,0,0,1-4.267,5,25.237,25.237,0,0,1-10.251,5.509l-35.911-11.948a25.564,25.564,0,0,1-5.243-17.077Z"/><path class="cls-16" d="M508.034,263.65c-6.25-2.851-12.384-.718-20-6.2-.237-.171-.4-.294-.575-.427A40.227,40.227,0,0,1,475.4,241.285a70.928,70.928,0,0,0,1.629,10.012c1.856,7.825,4.363,12.428,6.732,18.174a108.779,108.779,0,0,1,6.108,20.422L478.579,325.27l12.233-34.964a46.765,46.765,0,0,1,3.787-4.152c2.214-2.152,4.845-4.28,13.391-9.525,2.1-1.287,4.964-3.016,8.432-5.012C513.546,266.866,510.393,264.726,508.034,263.65Z"/><path class="cls-17" d="M186.04,267.622q3.393,13.154,6.788,26.309a27.47,27.47,0,0,0,15.156-4.985,26.747,26.747,0,0,0,6.99-7.379q-4.044-10.538-8.089-21.074l-22.488-.414Q185.219,263.85,186.04,267.622Z"/><path class="cls-18" d="M211.056,226.713s4.348-7.47-.894-12.9c-8.32-8.616-44.191-3.26-50.3,18.045C155.6,246.743,166.7,267.13,188.4,274.088Z"/><path class="cls-19" d="M207.411,261.862l-4.595-1.444-1.429-.027-.76.144-7.029,3.919q-.3,2.916-.6,5.832a18.048,18.048,0,0,0,9.739,7.288,17.8,17.8,0,0,0,10.63-.192Q210.389,269.621,207.411,261.862Z"/><path class="cls-17" d="M211.056,226.713a83.3,83.3,0,0,1,3.373,9.145c.789,2.644,1.165,3.974,1.932,6.707,2.612,9.306,3.272,9.427,4.315,13.992,1.692,7.413,2.566,11.241.448,14.1-2.365,3.194-7.08,3.32-13.818,3.5-4.725.126-8.315.222-12.264-1.921a18.652,18.652,0,0,1-7.682-8.214s-.368,2.6-2.6,1.486-9.566-11.024-5.58-12.976,7.331,3.422,7.331,3.422l2.221-3.526s-6.4-12.208-1.824-17.01a6.151,6.151,0,0,1,3.007-1.632C194.874,232.409,201.528,230.219,211.056,226.713Z"/><path class="cls-20" d="M213.071,257.568a7.019,7.019,0,0,0,8.658,4.059c-.1-.61-.211-1.274-.343-2.033-.213-1.229-.612-3.034-1.1-4.918Z"/><path class="cls-17" d="M293.44,270.585l12.553.322a2.465,2.465,0,1,0,.039-4.923l-12.573-1.523C290.519,268.026,293.44,270.585,293.44,270.585Z"/><path class="cls-17" d="M292.364,276.537l11.944.853a2.678,2.678,0,0,0,3.12-2.32,2.629,2.629,0,0,0-1.989-2.554l-12-1.931A4.424,4.424,0,0,0,292.364,276.537Z"/><path class="cls-17" d="M291.427,281.613c3.335.313,7.06.643,11.108.976a2.431,2.431,0,0,0,.862-4.439l-11.033-1.613A4.426,4.426,0,0,0,291.427,281.613Z"/><path class="cls-17" d="M293.459,264.461l12.682-.534a2.385,2.385,0,0,0-.18-4.764l-12.606-.544C291.45,262.122,293.459,264.461,293.459,264.461Z"/><path class="cls-17" d="M302.656,420.7c-.4-.281-5.066-3.468-9.407-1.474a7.538,7.538,0,0,0-2.56,1.956l-3.95-.836-3.966,16.9,5.238-.65a4.568,4.568,0,0,0,.524,2.28c1.86,3.409,8.7,4.114,16.995,1.944Z"/><path class="cls-19" d="M302.656,420.7c-.4-.281-5.066-3.468-9.407-1.474-.04.019-.067.047-.107.066a8.593,8.593,0,0,0,.045,4.159s-1.839,3.083.339,5.407a7.3,7.3,0,0,0-.609,7.546,14.34,14.34,0,0,0-.839,4.982c3.193,1.015,7.988.858,13.452-.571Z"/><path class="cls-17" d="M297.4,431.47l15-.84a2.948,2.948,0,1,0-.434-5.873l-15.139-.59C293.666,428.7,297.4,431.47,297.4,431.47Z"/><path class="cls-17" d="M296.7,438.672l14.324-.148a3.2,3.2,0,0,0,3.494-3.071,3.146,3.146,0,0,0-2.621-2.851L297.4,431.47A5.293,5.293,0,0,0,296.7,438.672Z"/><path class="cls-17" d="M296.074,444.816c4.006.048,8.48.077,13.339.08a2.909,2.909,0,0,0,.594-5.377l-13.311-.847A5.294,5.294,0,0,0,296.074,444.816Z"/><path class="cls-17" d="M296.824,424.167l15.069-1.874a2.853,2.853,0,0,0-.68-5.662l-15.083.581C294.2,421.574,296.824,424.167,296.824,424.167Z"/><path class="cls-21" d="M191.327,439.591c-20.314-10.788-27.884-32.524-31.286-42.277-9.941-28.5-6.973-65.79,15.479-89.66a71.506,71.506,0,0,1,17.054-13.288,112.315,112.315,0,0,0-1.235,33.622A113.447,113.447,0,0,0,207.352,374.2c.933,5.735,3.272,14.212,9.986,20.878,6.355,6.31,16.542,8.5,36.657,12.611,15.711,3.214,27.695,5.622,33.2,6.727l-.453,25.871c-8.048,1.318-20.039,2.993-34.682,3.922C221.075,446.179,205.582,447.162,191.327,439.591Z"/><path class="cls-22" d="M564.806,529.089c0,2.257-50.175,4.087-112.068,4.087s-112.068-1.83-112.068-4.087S390.845,525,452.738,525,564.806,526.832,564.806,529.089Z"/><polygon class="cls-23" points="374.139 499.388 363.125 501.195 363.125 506.817 372.445 514.579 401.533 513.776 449.26 513.776 463.103 513.776 463.103 498.96 374.139 499.388"/><path class="cls-24" d="M539.569,494.958a11.681,11.681,0,0,0-15.753-6.344l-27.464-.268s-.424,7.629,2.753,10.44l-36,.174v14.816h88.954l6.143-15.191v-3.111Z"/><path class="cls-25" d="M558.8,470.545l-6.023-.936-1.74-20.211,5.22-.133H558.8a6.864,6.864,0,0,0-.5-4.032l-4.065-.8c-7.679-6.274-27.655-5.772-28.258-5.772-.576,0-33.777.092-36.639.1v49.589h10.239l26.032.268s8.7,1.205,13.251,7.094l19.34-.234h2.409V471.482Z"/><path class="cls-26" d="M552.779,469.609l6.023.936s-.8-14.321-2.543-21.28l-5.22.133Z"/><path class="cls-27" d="M505.509,445.115a4.3,4.3,0,0,0-4.3,4.122l-1.635,39.109,23.623.243V445.115Z"/><path class="cls-28" d="M550.772,455.689a36.85,36.85,0,0,0-.67-6.023,36.287,36.287,0,0,0-1.2-4.551H523.2v43.474l2.409.025s8.7,1.205,13.251,7.094l12.476-.151C551.166,474.846,550.905,459.627,550.772,455.689Z"/><path class="cls-26" d="M525.609,447.792v16.731l20.015,3.767a2.416,2.416,0,0,0,2.863-2.277c.188-4.694.43-13.471-.258-16.079a3,3,0,0,0-.6-1.205c-1.181-1.39-3.473-1.183-5.487-1.07-2.517.14-5.045-.058-7.562.066C532.455,447.83,529.392,447.917,525.609,447.792Z"/><rect class="cls-29" x="544.648" y="454.317" width="4.718" height="10.64" rx="0.959"/><path class="cls-30" d="M554.235,444.43s-.251-3.865-9.085-6.575-21.983-3.413-21.983-3.413c5.521,3.914-14.255-.1-14.255-.1l-18.369.2h-1.2v4.215c2.862-.007,36.063-.1,36.639-.1C526.58,438.658,546.556,438.156,554.235,444.43Z"/><path class="cls-31" d="M523.167,434.442a36.441,36.441,0,0,0-6.023-6.525,37.948,37.948,0,0,0-17.667-8.231c-1.425-.3-2.489-.549-3.146-.7-1.206-.284-2.039-.5-2.777-.067a2.278,2.278,0,0,0-.636.569,3.079,3.079,0,0,0-.468,1.472c-.071.428-.148.983-.2,1.64q-.854,5.971-1.706,11.945l18.369-.2S528.688,438.356,523.167,434.442Z"/><polygon class="cls-32" points="558.752 500.091 560.91 500.091 560.91 498.184 551.474 498.184 551.524 514.446 560.759 514.446 560.759 512.187 558.802 512.187 558.802 508.071 561.01 508.071 561.01 506.014 558.752 506.014 558.752 500.091"/><circle class="cls-33" cx="521.27" cy="510.328" r="15.759" transform="translate(-75.654 90.997) rotate(-9.305)"/><circle class="cls-34" cx="521.27" cy="510.328" r="10.058" transform="translate(-208.18 518.065) rotate(-45)"/><circle class="cls-35" cx="521.27" cy="510.328" r="4.138" transform="translate(-103.605 133.913) rotate(-13.328)"/><path class="cls-36" d="M519.894,503.586a1.376,1.376,0,1,0,1.376-1.376A1.376,1.376,0,0,0,519.894,503.586Z"/><path class="cls-37" d="M519.894,517.618a1.376,1.376,0,1,0,1.376-1.376A1.376,1.376,0,0,0,519.894,517.618Z"/><path class="cls-38" d="M528.286,509.226a1.376,1.376,0,1,0,1.376,1.376A1.376,1.376,0,0,0,528.286,509.226Z"/><path class="cls-39" d="M514.254,509.226a1.376,1.376,0,1,0,1.376,1.376A1.376,1.376,0,0,0,514.254,509.226Z"/><path class="cls-40" d="M515.209,506.811a1.376,1.376,0,1,0-.064-1.945A1.376,1.376,0,0,0,515.209,506.811Z"/><path class="cls-41" d="M525.451,516.4a1.376,1.376,0,1,0-.064-1.945A1.377,1.377,0,0,0,525.451,516.4Z"/><path class="cls-42" d="M525.061,504.54a1.376,1.376,0,1,0,1.945-.064A1.377,1.377,0,0,0,525.061,504.54Z"/><path class="cls-43" d="M515.47,514.782a1.376,1.376,0,1,0,1.945-.063A1.376,1.376,0,0,0,515.47,514.782Z"/><circle class="cls-44" cx="432.873" cy="510.328" r="15.759" transform="translate(-140.729 854.992) rotate(-80.695)"/><circle class="cls-45" cx="432.873" cy="510.328" r="10.058" transform="translate(-232.415 582.474) rotate(-55.884)"/><circle class="cls-46" cx="432.873" cy="510.328" r="4.138" transform="translate(-163.499 813.897) rotate(-76.672)"/><path class="cls-47" d="M434.249,503.586a1.376,1.376,0,1,1-1.376-1.376A1.376,1.376,0,0,1,434.249,503.586Z"/><path class="cls-48" d="M434.249,517.618a1.376,1.376,0,1,1-1.376-1.376A1.376,1.376,0,0,1,434.249,517.618Z"/><path class="cls-49" d="M425.857,509.226a1.376,1.376,0,1,1-1.376,1.376A1.376,1.376,0,0,1,425.857,509.226Z"/><path class="cls-50" d="M439.889,509.226a1.376,1.376,0,1,1-1.376,1.376A1.376,1.376,0,0,1,439.889,509.226Z"/><path class="cls-51" d="M438.935,506.811a1.376,1.376,0,1,1,.064-1.945A1.377,1.377,0,0,1,438.935,506.811Z"/><path class="cls-52" d="M428.692,516.4a1.376,1.376,0,1,1,.064-1.945A1.376,1.376,0,0,1,428.692,516.4Z"/><path class="cls-53" d="M429.082,504.54a1.376,1.376,0,1,1-1.945-.064A1.376,1.376,0,0,1,429.082,504.54Z"/><path class="cls-54" d="M438.673,514.782a1.376,1.376,0,1,1-1.945-.063A1.376,1.376,0,0,1,438.673,514.782Z"/><circle class="cls-55" cx="390.677" cy="510.328" r="15.759" transform="translate(-246.43 425.722) rotate(-45)"/><circle class="cls-56" cx="390.677" cy="510.328" r="10.058" transform="translate(-246.43 425.722) rotate(-45)"/><circle class="cls-57" cx="390.677" cy="510.328" r="4.138" transform="translate(-246.43 425.722) rotate(-45)"/><path class="cls-58" d="M392.053,503.586a1.376,1.376,0,1,1-1.376-1.376A1.376,1.376,0,0,1,392.053,503.586Z"/><path class="cls-59" d="M392.053,517.618a1.376,1.376,0,1,1-1.376-1.376A1.376,1.376,0,0,1,392.053,517.618Z"/><path class="cls-60" d="M383.661,509.226a1.376,1.376,0,1,1-1.376,1.376A1.376,1.376,0,0,1,383.661,509.226Z"/><path class="cls-61" d="M397.693,509.226a1.376,1.376,0,1,1-1.376,1.376A1.376,1.376,0,0,1,397.693,509.226Z"/><path class="cls-62" d="M396.738,506.811a1.376,1.376,0,1,1,.064-1.945A1.376,1.376,0,0,1,396.738,506.811Z"/><path class="cls-63" d="M386.5,516.4a1.376,1.376,0,1,1,.064-1.945A1.377,1.377,0,0,1,386.5,516.4Z"/><path class="cls-64" d="M386.886,504.54a1.376,1.376,0,1,1-1.945-.064A1.377,1.377,0,0,1,386.886,504.54Z"/><path class="cls-65" d="M396.477,514.782a1.376,1.376,0,1,1-1.945-.063A1.377,1.377,0,0,1,396.477,514.782Z"/><rect class="cls-66" x="537.32" y="502.4" width="14.656" height="3.513"/><rect class="cls-67" x="452.398" y="499.188" width="30.315" height="16.864"/><rect class="cls-68" x="484.921" y="503.002" width="15.66" height="3.212"/><path class="cls-69" d="M560.609,477.2h-.753a1.958,1.958,0,0,0-1.957,1.958v2.509a1.957,1.957,0,0,0,1.957,1.957h.753Z"/><rect class="cls-70" x="557.597" y="487.811" width="3.011" height="2.811"/><rect class="cls-71" x="345.19" y="410.45" width="136.519" height="81.51"/><rect class="cls-72" x="451.685" y="502.658" width="32.956" height="0.719"/><rect class="cls-73" x="451.788" y="507.175" width="32.956" height="0.719"/><rect class="cls-74" x="451.89" y="511.693" width="32.956" height="0.719"/><rect class="cls-75" x="484.921" y="512.338" width="15.66" height="3.212"/><rect class="cls-76" x="483.817" y="499.522" width="2.108" height="16.028"/><rect class="cls-77" x="499.778" y="499.589" width="1.907" height="15.961"/><path class="cls-78" d="M503.49,517.089a1.539,1.539,0,0,1-1.522-1.318,37.877,37.877,0,0,1,.207-10.631c1.287-7.568,5.067-12.463,10.927-14.157l.21-.061h14.62l.315.15a20.759,20.759,0,0,1,7.806,6.4c5.248,7.161,3.908,15.445,3.372,17.813a1.54,1.54,0,1,1-3-.679c.463-2.048,1.626-9.2-2.852-15.313A17.626,17.626,0,0,0,527.227,494H513.755c-11.169,3.449-8.765,21.148-8.739,21.328a1.541,1.541,0,0,1-1.526,1.759Z"/><path class="cls-79" d="M415.154,517.089a1.539,1.539,0,0,1-1.522-1.318,37.877,37.877,0,0,1,.207-10.631c1.288-7.568,5.067-12.463,10.928-14.157l.209-.061H439.6l.315.15a20.759,20.759,0,0,1,7.806,6.4c5.249,7.161,3.908,15.445,3.372,17.813a1.54,1.54,0,1,1-3-.679c.463-2.048,1.627-9.2-2.852-15.313A17.631,17.631,0,0,0,438.892,494H425.419c-11.168,3.449-8.764,21.148-8.739,21.328a1.541,1.541,0,0,1-1.526,1.759Z"/><path class="cls-80" d="M372.994,517.09a1.54,1.54,0,0,1-1.522-1.319,37.877,37.877,0,0,1,.207-10.631c1.288-7.568,5.066-12.463,10.927-14.157l.21-.061h14.62l.315.15a20.759,20.759,0,0,1,7.806,6.4c5.249,7.162,3.908,15.446,3.372,17.813a1.54,1.54,0,1,1-3-.679c.463-2.048,1.627-9.2-2.852-15.313A17.631,17.631,0,0,0,396.732,494H383.259c-11.195,3.456-8.765,21.147-8.739,21.327a1.54,1.54,0,0,1-1.526,1.761Z"/></g></svg>