<?xml version="1.0" encoding="utf-8"?>
<!-- Generator: Adobe Illustrator 25.4.1, SVG Export Plug-In . SVG Version: 6.00 Build 0)  -->
<svg version="1.1" id="Layer_1" xmlns="http://www.w3.org/2000/svg" xmlns:xlink="http://www.w3.org/1999/xlink" x="0px" y="0px"
	 viewBox="0 0 189.68 223.97" style="enable-background:new 0 0 189.68 223.97;" xml:space="preserve">
<style type="text/css">
	.st0{fill:#FFC0C2;}
	.st1{fill:url(#SVGID_1_);}
	.st2{fill:#312B30;}
	.st3{fill:url(#SVGID_00000012468751311404603880000016361698738965419181_);}
	.st4{fill:url(#SVGID_00000132809604514856283970000010380790538115932802_);}
	.st5{fill:url(#SVGID_00000134240035533813404850000004739467185353040568_);}
	.st6{fill:url(#SVGID_00000070090802406902814990000015526482401814420868_);}
	.st7{fill:url(#SVGID_00000108277488530494785710000018105563582362092193_);}
	.st8{fill:url(#SVGID_00000109708877035834105830000013488528011679380153_);}
	.st9{fill:url(#SVGID_00000151527663279999583080000000628794257216012990_);}
	.st10{fill:url(#SVGID_00000124121893281777362540000010226548250985842859_);}
	.st11{fill:#F29EA4;}
	.st12{fill:#ED6B47;}
	.st13{fill:#FFFFFF;}
	.st14{fill:url(#SVGID_00000065035221452125358430000016298685621889519242_);}
	.st15{font-family:'HelveticaNeue-Bold';}
	.st16{font-size:3.0407px;}
</style>
<g>
	<g>
		<path class="st0" d="M9.96,175.62c4,1.33,8.01,2.66,12.01,3.99l1.87-6.73c-4.5-0.38-9-0.76-13.49-1.14
			C10.22,173.03,10.09,174.33,9.96,175.62z"/>
		
			<linearGradient id="SVGID_1_" gradientUnits="userSpaceOnUse" x1="198.0829" y1="-2671.9304" x2="213.9035" y2="-2671.9304" gradientTransform="matrix(0.7299 -0.6835 -0.6835 -0.7299 -1970.6228 -1633.3381)">
			<stop  offset="0.3548" style="stop-color:#F7AA46"/>
			<stop  offset="1" style="stop-color:#F46B45"/>
		</linearGradient>
		<path class="st1" d="M3.57,177.21c-0.99,1.82-1.71,3.16-2.52,5.12c0.25-0.02,0.44-0.11,0.5-0.14c2.66-1.66,4.72-2.94,6.07-3.75
			l1.86-1.33c0.92-0.65,1.4-0.97,1.49-1.53c0.06-0.4-0.15-0.46-0.14-1.07c0.01-0.29,0.02-0.96,0.5-1.47
			c0.42-0.45,0.98-0.53,1.2-0.55c0,0-0.03-2.62-3.6-3.43c-0.35,0.42-0.84,1.03-1.41,1.79C5.71,173.28,4.6,175.31,3.57,177.21z"/>
		<path class="st2" d="M1.05,182.33c0.81-1.97,1.54-3.31,2.52-5.12c1.03-1.9,2.14-3.93,3.96-6.37c0.56-0.75,1.05-1.36,1.41-1.79
			c0,0-0.53-1.39-2.05-0.47L0,181.82c0.05,0.07,0.29,0.4,0.74,0.49C0.85,182.34,0.95,182.34,1.05,182.33z"/>
		
			<linearGradient id="SVGID_00000031897294248341891570000017600703639567511483_" gradientUnits="userSpaceOnUse" x1="2561.8118" y1="192.7664" x2="2618.9722" y2="122.8198" gradientTransform="matrix(0.9976 -0.0694 0.0694 0.9976 -2537.3855 181.2014)">
			<stop  offset="0" style="stop-color:#312B30"/>
			<stop  offset="1" style="stop-color:#191519"/>
		</linearGradient>
		<path style="fill:url(#SVGID_00000031897294248341891570000017600703639567511483_);" d="M14.48,171.03
			c13.91-1.14,27.82-2.27,41.73-3.41c4.58-19.92,9.16-39.84,13.75-59.76c8.27,2.31,16.53,4.63,24.8,6.94
			c-1.54,13.79-3.8,25-5.63,32.81c-7.08,30.22-13.61,35.14-16.65,36.97c-5.34,3.21-10.45,3.25-19,3.21
			c-8.57-0.04-23-1.41-40.14-9.77C13.72,175.69,14.1,173.36,14.48,171.03z"/>
		<path class="st0" d="M144.34,215.98c-1.49-4.11-2.99-8.23-4.49-12.34l-6.53,2.48c2.58,3.91,5.15,7.83,7.73,11.74
			c0.83,0.48,1.83,0.42,2.52-0.14C144.35,217.09,144.35,216.11,144.34,215.98z"/>
		
			<linearGradient id="SVGID_00000091724298499002665810000018243669040133559218_" gradientUnits="userSpaceOnUse" x1="-1582.0319" y1="178.6921" x2="-1566.2129" y2="178.6921" gradientTransform="matrix(-0.9988 0.0501 0.0501 0.9988 -1433.1072 119.0661)">
			<stop  offset="0.3548" style="stop-color:#F7AA46"/>
			<stop  offset="1" style="stop-color:#F46B45"/>
		</linearGradient>
		<path style="fill:url(#SVGID_00000091724298499002665810000018243669040133559218_);" d="M150.74,219.52
			c1.93-0.75,3.35-1.3,5.24-2.28c-0.2-0.15-0.4-0.2-0.47-0.21c-3.1-0.45-5.51-0.81-7.05-1.06l-2.28-0.19
			c-1.12-0.1-1.7-0.17-2.12,0.21c-0.3,0.26-0.18,0.45-0.59,0.91c-0.19,0.22-0.63,0.72-1.34,0.8c-0.61,0.07-1.09-0.23-1.27-0.35
			c0,0-1.67,2.02,0.53,4.94c0.54-0.1,1.31-0.24,2.23-0.46C146.56,221.13,148.72,220.3,150.74,219.52z"/>
		<path class="st2" d="M155.97,217.24c-1.89,0.98-3.31,1.53-5.24,2.28c-2.02,0.78-4.18,1.62-7.13,2.3
			c-0.91,0.21-1.68,0.36-2.23,0.46c0,0-0.49,1.41,1.26,1.69l13.8-5.66c0.01-0.09,0.04-0.49-0.25-0.85
			C156.12,217.36,156.05,217.29,155.97,217.24z"/>
		
			<linearGradient id="SVGID_00000146466667198576286370000000570283339360395907_" gradientUnits="userSpaceOnUse" x1="2616.21" y1="131.7964" x2="2677.1299" y2="229.5691" gradientTransform="matrix(0.9971 -0.0762 0.0762 0.9971 -2533.0107 181.7953)">
			<stop  offset="0" style="stop-color:#312B30"/>
			<stop  offset="1" style="stop-color:#191519"/>
		</linearGradient>
		<path style="fill:url(#SVGID_00000146466667198576286370000000570283339360395907_);" d="M70.09,117c-1.13-3.89-1.17-7.36-1-9.79
			c11.36-0.55,22.71-1.11,34.07-1.66c7.63,17.21,15.2,35.24,22.62,54.09c7.09,18.03,13.57,35.62,19.49,52.69
			c-2.47,1.31-4.93,2.61-7.4,3.92c-6.34-8.88-12.9-17.86-19.69-26.92c-4.88-6.5-9.74-12.88-14.6-19.14c0,0-6.93-8.78-30.31-46.15
			C72.65,123.06,71.12,120.58,70.09,117z"/>
	</g>
	<g>
		
			<linearGradient id="SVGID_00000105412677746103346460000013978280495412378020_" gradientUnits="userSpaceOnUse" x1="118.4027" y1="73.9399" x2="90.5072" y2="68.0951" gradientTransform="matrix(0.9987 -0.0515 0.0515 0.9987 10.2717 12.0044)">
			<stop  offset="0" style="stop-color:#312B30"/>
			<stop  offset="1" style="stop-color:#191519"/>
		</linearGradient>
		<path style="fill:url(#SVGID_00000105412677746103346460000013978280495412378020_);" d="M118.24,61.59
			c-4.36,10.89-7.14,13.11-8.91,12.9c-1.37-0.17-2.82-2.34-5.73-6.69c0,0-2.42-3.61-5.29-5.91c-0.76-0.61-1.56-0.88-1.64-0.91
			c-0.47-0.16-0.87-0.22-1.11-0.24c1.66,5.8,3.26,11.85,4.76,18.14c0.98,4.11,1.87,8.15,2.69,12.1l1,0.94
			c-0.02-0.18-0.04-0.36-0.06-0.54c4.38,1.53,7.24,0.84,8.67,0.3c7.12-2.69,9.15-13.1,10.45-19.79c0.81-4.14,0.97-7.65,0.98-10.03
			C122.1,61.77,120.17,61.68,118.24,61.59z"/>
		<g>
			
				<linearGradient id="SVGID_00000138571409003207434330000016431751259091894404_" gradientUnits="userSpaceOnUse" x1="-44.0897" y1="14.1963" x2="41.3046" y2="14.1963" gradientTransform="matrix(0.9852 -0.1717 0.1717 0.9852 149.0744 33.9812)">
				<stop  offset="0" style="stop-color:#DD1545"/>
				<stop  offset="1" style="stop-color:#FF6B47"/>
			</linearGradient>
			<path style="fill:url(#SVGID_00000138571409003207434330000016431751259091894404_);" d="M102.17,17.98
				c5.68-1.66,11.95-3.83,18.6-6.69c8.35-3.6,15.54-7.53,21.56-11.29c6.24,1.46,13.61,2.75,21.92,3.4
				c7.84,0.61,14.92,0.51,21.04,0.1c1.49,5.69,14.99,60.1-14.31,85.32c-3.13,2.7-7.03,5.29-11.89,7.4
				c-6.97-0.82-12.64-2.71-17.16-4.85C106.42,74.53,102.53,23.68,102.17,17.98z"/>
			<g>
				
					<linearGradient id="SVGID_00000008869119073861673760000011522534121549859500_" gradientUnits="userSpaceOnUse" x1="173.178" y1="39.6224" x2="144.032" y2="63.9429">
					<stop  offset="0.3548" style="stop-color:#F7F8D5"/>
					<stop  offset="1" style="stop-color:#F4F36F"/>
				</linearGradient>
				<path style="fill:url(#SVGID_00000008869119073861673760000011522534121549859500_);" d="M127.09,44.37l5.89,33.82l43.45-7.57
					l-5.89-33.82L127.09,44.37z M154.06,59.99l1.33,7.65l-3.62,0.63l-1.33-7.65c-1.59-0.43-2.87-1.74-3.17-3.47
					c-0.41-2.38,1.18-4.64,3.55-5.05c2.38-0.41,4.64,1.18,5.05,3.55C156.17,57.38,155.41,59.05,154.06,59.99z"/>
				
					<linearGradient id="SVGID_00000070093105194465196340000011655819786919028921_" gradientUnits="userSpaceOnUse" x1="158.622" y1="22.1782" x2="129.4759" y2="46.4987">
					<stop  offset="0.3548" style="stop-color:#F7F8D5"/>
					<stop  offset="1" style="stop-color:#F4F36F"/>
				</linearGradient>
				<path style="fill:url(#SVGID_00000070093105194465196340000011655819786919028921_);" d="M133.95,47.73l-2.38-13.64
					c-1.5-8.62,4.29-16.85,12.91-18.35c8.62-1.5,16.85,4.29,18.35,12.91l1.87,9.21l3.38-0.59l-1.87-9.21
					c-1.83-10.48-11.84-17.52-22.32-15.69c-10.48,1.83-17.52,11.84-15.69,22.32l2.96,17.01l28.55-4.97l-0.59-3.38L133.95,47.73z"/>
			</g>
		</g>
		
			<linearGradient id="SVGID_00000007399148976009163660000003442229567931989933_" gradientUnits="userSpaceOnUse" x1="82.5998" y1="102.4032" x2="57.8922" y2="58.8329" gradientTransform="matrix(0.9987 -0.0515 0.0515 0.9987 10.2717 12.0044)">
			<stop  offset="0" style="stop-color:#312B30"/>
			<stop  offset="1" style="stop-color:#191519"/>
		</linearGradient>
		<path style="fill:url(#SVGID_00000007399148976009163660000003442229567931989933_);" d="M96.21,60.83
			c-1.74-0.4-3.47-0.35-4.86-0.18c-2.15,0.24-4.29,0.49-6.44,0.73c-2.22-0.03-3.94-0.65-4.89-1.07c-2.22,0.75-4.44,1.5-6.66,2.26
			c-0.91,4.86-1.81,9.73-2.72,14.59l-0.32,2.4c-0.52,4.67-1.03,9.34-1.54,14c-0.53,4.8-1.05,9.61-1.57,14.42
			c5.04,0.09,10.32,0.05,15.82-0.15c7.74-0.29,15.04-0.88,21.86-1.66c0.01-1.79-0.02-4.14-0.18-6.89c-0.05-0.86-0.27-3.72-0.73-7.37
			c-1.46-11.71-5.08-22.9-7.03-28.83C96.64,62.11,96.37,61.32,96.21,60.83z"/>
		<path class="st0" d="M80.62,52.69c1.27-0.25,3.49-0.52,6.1,0.12c1.84,0.45,3.25,1.18,4.2,1.78c0.11,2.14,0.23,4.28,0.34,6.43
			c-1.09,0.54-3.37,1.49-6.37,1.35c-2.31-0.11-4.09-0.82-5.12-1.33C80.06,58.25,80.34,55.47,80.62,52.69z"/>
		<path class="st11" d="M90.99,56.58c-0.11-0.26-0.22-0.52-0.33-0.78c-0.69-0.46-1.99-1.19-3.78-1.38
			c-1.04-0.11-1.93-0.01-2.57,0.12c0.29,0.67,1.08,2.25,2.84,3.47c1.64,1.14,3.26,1.36,4,1.42C91.09,58.47,91.04,57.52,90.99,56.58z
			"/>
		<path class="st12" d="M91.77,39.46c0.38-0.33,1.02-0.98,1.38-1.99c0.56-1.6,0.16-3.39-0.87-4.61c-0.24-0.29-0.92-1.07-2.06-1.4
			c-1.92-0.56-2.98,0.82-6.24,1.78c-3.14,0.93-3.55,0.05-5.77,1.09c-0.85,0.4-3.03,1.42-4.07,3.76c-1.42,3.18,0.43,6.5,0.73,7.03
			c-1.02,1.38-1.18,2.55-1.18,3.21c-0.05,3.51,3.94,6.61,7.65,6.98c0.45,0.04,2.33,0.19,4.27-0.73
			C89.83,52.56,92.1,46.54,91.77,39.46z"/>
		<path class="st0" d="M83.26,51.36c-0.83,0.32-1.37,0.16-1.58,0.07c-1.58-0.62-1.78-3.54-0.97-4.32c0.43-0.42,0.91-0.45,0.91-0.45
			c0.07,0,0.26-0.01,0.51,0.08c1.01,0.36,1.55,1.79,1.55,1.79c0.17-0.21,0.34-0.43,0.51-0.64c-1.5-3.19-0.51-6.74,1.89-8.25
			c2.49-1.57,5.44-0.28,5.69-0.17c0.5,0.86,1.01,1.78,1.51,2.76c0.69,1.35,1.27,2.65,1.76,3.88c0.24,0.13,0.54,0.34,0.6,0.66
			c0.05,0.29-0.14,0.48-0.25,0.88c-0.12,0.47-0.02,0.84,0.04,1.18c0.27,1.33,0.37,3.58,0.35,4.69c-0.03,1.47-0.05,2.21-0.41,2.73
			c-1.59,2.33-7.1,0.58-9.23-0.1c-0.95-0.3-2.28-0.82-2.59-1.85c-0.06-0.19-0.09-0.56-0.17-1.29
			C83.32,52.31,83.28,51.75,83.26,51.36z"/>
		<path class="st0" d="M83.26,51.36c-0.83,0.32-1.37,0.16-1.58,0.07c-1.58-0.62-1.78-3.54-0.97-4.32c0.43-0.42,0.91-0.45,0.91-0.45
			c0.07,0,0.26-0.01,0.51,0.08c1.01,0.36,1.55,1.79,1.55,1.79c0.17-0.21,0.34-0.43,0.51-0.64c-1.5-3.19-0.51-6.74,1.89-8.25
			c2.49-1.57,5.44-0.28,5.69-0.17c0.5,0.86,1.01,1.78,1.51,2.76c0.69,1.35,1.27,2.65,1.76,3.88c0.24,0.13,0.54,0.34,0.6,0.66
			c0.05,0.29-0.14,0.48-0.25,0.88c-0.12,0.47-0.02,0.84,0.04,1.18c0.27,1.33,0.37,3.58,0.35,4.69c-0.03,1.47-0.05,2.21-0.41,2.73
			c-1.59,2.33-7.1,0.58-9.23-0.1c-0.95-0.3-2.28-0.82-2.59-1.85c-0.06-0.19-0.09-0.56-0.17-1.29
			C83.32,52.31,83.28,51.75,83.26,51.36z"/>
		<path class="st12" d="M95.76,54.46c0.02-0.72,0.02-0.77,0.03-0.96c0.02-0.93-0.05-2.68-0.24-4c-0.66,0.1-5.93,0.92-8.22,0.65
			c-0.55-0.06-1.06-0.2-1.54-0.54c-0.58-0.4-0.88-0.94-1.2-1.67c-0.35-0.81-0.8-2.03-1.09-3.62c-0.53-0.79-0.86-1.15-0.99-1.09
			c-0.16,0.07-0.03,0.78,0.4,2.12c0.26,1.06,0.51,2.11,0.77,3.17c0,0-0.05-0.11-0.13-0.28c0.24,1.09,0.46,2.26,0.67,3.5
			c0.36,2.12,0.44,2.94,1.1,3.9c0.57,0.83,1.25,1.29,1.61,1.52c3.43,2.17,8.19-0.1,8.57-1.07c0.15-0.38,0.21-0.77,0.21-0.77
			C95.75,55.1,95.75,54.95,95.76,54.46z"/>
		<path class="st13" d="M92.44,51.48c0.33,1.57,1.82,2.59,3.38,2.37c0-0.27,0-0.56,0.01-0.89c0-0.54-0.03-1.34-0.1-2.18L92.44,51.48
			z"/>
		<g>
			<path class="st0" d="M118.8,68.97c-0.18,0-2.22,0.08-3.05,1.6c-0.21,0.39-0.3,0.78-0.32,1.12c-0.44,0.2-0.88,0.4-1.33,0.61
				l2.48,5.76c0.46-0.44,0.92-0.88,1.38-1.32c0.21,0.28,0.43,0.45,0.64,0.55c1.27,0.59,3.41-0.68,5.35-3.09
				C122.24,72.45,120.52,70.71,118.8,68.97z"/>
			<path class="st11" d="M118.8,68.97c-0.18,0-2.22,0.08-3.05,1.6c-0.01,0.01-0.01,0.03-0.02,0.04c0.44,0.89,0.91,1.2,0.91,1.2
				s0.13,1.29,1.26,1.5c0,0-0.03,1.63,1.45,2.32c0,0,0.27,0.96,0.83,1.63c1.15-0.39,2.5-1.47,3.78-3.06
				C122.24,72.45,120.52,70.71,118.8,68.97z"/>
			<g>
				<path class="st0" d="M119.59,73.23c1.39-1.16,2.78-2.31,4.17-3.47c0.5-0.44,0.5-1.21,0.07-1.62c-0.38-0.36-1.02-0.38-1.46,0
					c-1.51,1.03-3.01,2.06-4.52,3.09C117.91,73.23,119.59,73.23,119.59,73.23z"/>
				<path class="st0" d="M120.94,75.47c1.38-1.04,2.75-2.08,4.13-3.12c0.6-0.39,0.72-1.18,0.35-1.64c-0.29-0.37-0.87-0.5-1.37-0.26
					c-1.48,0.93-2.97,1.86-4.45,2.79C119.29,75.03,120.94,75.47,120.94,75.47z"/>
				<path class="st0" d="M122.08,77.39c1.17-0.85,2.48-1.8,3.89-2.85c0.26-0.34,0.3-0.8,0.09-1.17c-0.21-0.38-0.64-0.59-1.07-0.52
					c-1.35,0.87-2.7,1.74-4.05,2.62C120.87,76.59,121.57,77.14,122.08,77.39z"/>
				<path class="st0" d="M117.86,71.23c1.32-1.26,2.65-2.52,3.97-3.79c0.37-0.39,0.39-0.99,0.07-1.38c-0.35-0.43-1.03-0.5-1.48-0.12
					c-1.42,1.14-2.84,2.28-4.25,3.41C116.54,71.05,117.86,71.23,117.86,71.23z"/>
			</g>
		</g>
		
			<linearGradient id="SVGID_00000019638876425660952390000018419215045058996891_" gradientUnits="userSpaceOnUse" x1="987.7709" y1="88.8539" x2="1005.152" y2="69.6866" gradientTransform="matrix(-1 0 0 1 1087.9561 0)">
			<stop  offset="0" style="stop-color:#191519"/>
			<stop  offset="1" style="stop-color:#312B30"/>
		</linearGradient>
		<path style="fill:url(#SVGID_00000019638876425660952390000018419215045058996891_);" d="M79.16,60.72
			c-1.09-0.06-3.14,0-5.24,1.13c-2.8,1.5-3.99,4-4.72,5.57c-0.38,0.83-2.21,4.98-1.15,11.29c1.16,6.93,6.29,19.37,16.07,21.05
			c6.33,1.09,11.67-2.83,20.09-8.99c6.25-4.58,10.61-9.29,13.3-12.53c-1.05-2.26-2.1-4.53-3.16-6.79
			c-8.42,4.27-16.84,8.55-25.26,12.82C85.79,76.41,82.47,68.56,79.16,60.72z"/>
		<path class="st13" d="M90.11,69.24l4.03,0.22l3.14-1.92c0,0,1.57,5.53-1.14,9.17C96.14,76.71,90.58,75.28,90.11,69.24z"/>
	</g>
	<text transform="matrix(0.3659 0.9307 -0.9307 0.3659 73.0627 69.5497)" class="st13 st15 st16">SECURITY</text>
	<path class="st13" d="M67.22,107.99l-0.23,2.52c0,0,32.7,0.46,38.58-2.65l-0.66-1.68C104.91,106.18,84.15,108.58,67.22,107.99z"/>
	<path class="st13" d="M109.99,85.99c-3.34-4.39-4.63-10.02-4.63-10.02l2.24-1.13c0,0,1.06,3.95,4.37,9.37L109.99,85.99z"/>
	<path class="st13" d="M112.66,83.18c-2.95-3.87-4.08-8.84-4.08-8.84l1.97-1c0,0,0.94,3.48,3.85,8.27L112.66,83.18z"/>
</g>
</svg>
